<svg xmlns="http://www.w3.org/2000/svg" width="143.419" height="73" viewBox="0 0 143.419 73">
  <g id="Group_31" data-name="Group 31" style="isolation: isolate">
    <ellipse id="Ellipse_8" data-name="Ellipse 8" cx="4.965" cy="10.131" rx="4.965" ry="10.131" transform="translate(25.898 45.95)" fill="#9c5633"/>
    <path id="Path_34" data-name="Path 34" d="M358.992,545.644a82.565,82.565,0,0,1,0-23.939l.387.065a82.139,82.139,0,0,0,0,23.809Z" transform="translate(-327.67 -472.979)" fill="#3f3d56"/>
    <rect id="Rectangle_108" data-name="Rectangle 108" width="5.092" height="0.392" transform="translate(30.744 56.305) rotate(-28.142)" fill="#3f3d56"/>
    <rect id="Rectangle_109" data-name="Rectangle 109" width="0.392" height="5.092" transform="translate(26.006 55.452) rotate(-61.842)" fill="#3f3d56"/>
    <path id="Path_35" data-name="Path 35" d="M392.783,23.548,372.99,0,333.258.363l-24.1,23.476.487.313h-.174v48.83H392.73V24.152Z" transform="translate(-256.403)" fill="#9c5633"/>
    <path id="Path_36" data-name="Path 36" d="M563.183.294,538.455,29.285V73.226H582.9V23.77Z" transform="translate(-446.576 -0.244)" fill="#e6a87a"/>
    <rect id="Rectangle_111" data-name="Rectangle 111" width="9.077" height="8.023" transform="translate(109.721 48.682)" fill="#3f3d56"/>
    <rect id="Rectangle_112" data-name="Rectangle 112" width="9.077" height="7.896" transform="translate(109.721 34.794)" fill="#3f3d56"/>
    <rect id="Rectangle_113" data-name="Rectangle 113" width="9.077" height="8.023" transform="translate(109.721 48.682)" fill="#fff"/>
    <rect id="Rectangle_125" data-name="Rectangle 125" width="9.077" height="12.432" transform="translate(69.381 60.273)" fill="#fff"/>
    <rect id="Rectangle_114" data-name="Rectangle 114" width="9.077" height="7.896" transform="translate(109.721 34.794)" fill="#fff"/>
    <path id="Path_37" data-name="Path 37" d="M682.079,637.761s.195-4.078,4.184-3.6" transform="translate(-596.364 -566.211)" fill="#e6a87a"/>
    <circle id="Ellipse_9" data-name="Ellipse 9" cx="1.997" cy="1.997" r="1.997" transform="translate(82.591 63.677)" fill="#e6a87a"/>
    <rect id="Rectangle_115" data-name="Rectangle 115" width="0.564" height="3.945" transform="translate(84.263 69.035)" fill="#e6a87a"/>
    <path id="Path_40" data-name="Path 40" d="M9.712,0c5.364,0,9.712,8.872,9.712,19.816S15.075,39.632,9.712,39.632,0,30.76,0,19.816,4.348,0,9.712,0Z" transform="translate(9.221 20.641)" fill="#9c5633"/>
    <path id="Path_38" data-name="Path 38" d="M288.611,435.876c-3.884-23.306-.039-46.528,0-46.759l.387.066c-.039.231-3.873,23.39,0,46.63Z" transform="translate(-268.596 -363.014)" fill="#3f3d56"/>
    <rect id="Rectangle_116" data-name="Rectangle 116" width="9.96" height="0.392" transform="translate(18.789 41.058) rotate(-28.142)" fill="#3f3d56"/>
    <rect id="Rectangle_117" data-name="Rectangle 117" width="0.392" height="9.96" transform="translate(9.521 39.061) rotate(-61.842)" fill="#3f3d56"/>
    <ellipse id="Ellipse_11" data-name="Ellipse 11" cx="13.29" cy="27.116" rx="13.29" ry="27.116" transform="translate(28.645 1.414)" fill="#9c5633"/>
    <path id="Path_39" data-name="Path 39" d="M423.06,352.26c-5.314-31.881-.054-63.646,0-63.963l.387.066c-.054.317-5.3,32.019,0,63.833Z" transform="translate(-379.574 -279.399)" fill="#3f3d56"/>
    <rect id="Rectangle_118" data-name="Rectangle 118" width="13.629" height="0.392" transform="translate(41.772 29.417) rotate(-28.142)" fill="#3f3d56"/>
    <rect id="Rectangle_119" data-name="Rectangle 119" width="0.392" height="13.629" transform="matrix(0.472, -0.882, 0.882, 0.472, 29.089, 26.555)" fill="#3f3d56"/>
    <rect id="Rectangle_120" data-name="Rectangle 120" width="143.419" height="0.341" transform="translate(0 72.659)" fill="#3f3d56"/>
    <rect id="Rectangle_121" data-name="Rectangle 121" width="9.077" height="8.023" transform="translate(69.381 46.553)" fill="#3f3d56"/>
    <rect id="Rectangle_122" data-name="Rectangle 122" width="9.077" height="7.896" transform="translate(69.381 32.665)" fill="#3f3d56"/>
    <rect id="Rectangle_123" data-name="Rectangle 123" width="9.077" height="8.023" transform="translate(69.381 46.553)" fill="#fff"/>
    <rect id="Rectangle_124" data-name="Rectangle 124" width="9.077" height="7.896" transform="translate(69.381 32.665)" fill="#fff"/>
  </g>
</svg>
