<svg xmlns="http://www.w3.org/2000/svg" width="38" height="38" viewBox="0 0 38 38">
  <g id="facebook" transform="translate(-3210 -2359)">
    <path id="Subtraction_2" data-name="Subtraction 2" d="M-540-2a18.88,18.88,0,0,1-7.4-1.493,18.939,18.939,0,0,1-6.039-4.072,18.937,18.937,0,0,1-4.072-6.039A18.881,18.881,0,0,1-559-21a18.882,18.882,0,0,1,1.493-7.4,18.936,18.936,0,0,1,4.072-6.039,18.937,18.937,0,0,1,6.039-4.072A18.882,18.882,0,0,1-540-40a18.882,18.882,0,0,1,7.4,1.493,18.936,18.936,0,0,1,6.039,4.072,18.936,18.936,0,0,1,4.072,6.039A18.882,18.882,0,0,1-521-21a18.881,18.881,0,0,1-1.493,7.4,18.937,18.937,0,0,1-4.072,6.039A18.938,18.938,0,0,1-532.6-3.493,18.88,18.88,0,0,1-540-2Zm-5-21.253v3.2h2.811v7.737h3.461v-7.737h2.579l.491-3.2h-3.071V-25.33a1.6,1.6,0,0,1,1.8-1.729h1.4v-2.725A17.406,17.406,0,0,0-538.007-30c-2.619,0-4.182,1.61-4.182,4.307v2.44Z" transform="translate(3769 2399)" fill="#fff"/>
  </g>
</svg>
