<svg xmlns="http://www.w3.org/2000/svg" width="38.001" height="38" viewBox="0 0 38.001 38">
  <g id="insta" transform="translate(-3210 -2359)">
    <path id="Subtraction_3" data-name="Subtraction 3" d="M-599-2a18.88,18.88,0,0,1-7.4-1.493,18.937,18.937,0,0,1-6.039-4.072,18.938,18.938,0,0,1-4.072-6.039A18.881,18.881,0,0,1-618-21a18.882,18.882,0,0,1,1.493-7.4,18.936,18.936,0,0,1,4.072-6.039,18.936,18.936,0,0,1,6.039-4.072A18.882,18.882,0,0,1-599-40a18.883,18.883,0,0,1,7.4,1.493,18.937,18.937,0,0,1,6.04,4.072,18.935,18.935,0,0,1,4.072,6.039A18.882,18.882,0,0,1-580-21a18.881,18.881,0,0,1-1.493,7.4,18.936,18.936,0,0,1-4.072,6.039,18.937,18.937,0,0,1-6.04,4.072A18.882,18.882,0,0,1-599-2Zm-.289-27.33c-1.484,0-2.8.022-3.437.059a4.918,4.918,0,0,0-3.49,1.342,4.917,4.917,0,0,0-1.346,3.49c-.079,1.381-.079,5.492,0,6.873a4.9,4.9,0,0,0,1.346,3.491,4.944,4.944,0,0,0,3.49,1.345c.641.036,1.958.059,3.436.059s2.8-.022,3.437-.059a4.9,4.9,0,0,0,3.491-1.345,4.937,4.937,0,0,0,1.345-3.491c.079-1.38.079-5.489,0-6.87a4.9,4.9,0,0,0-1.345-3.49,4.932,4.932,0,0,0-3.491-1.345C-596.489-29.307-597.806-29.329-599.29-29.329Zm1.479,15.168h0c-.313,0-.614,0-.88-.006-.223,0-.424,0-.6,0s-.367,0-.583,0c-.26,0-.555.005-.861.005a11.908,11.908,0,0,1-3.466-.344,2.811,2.811,0,0,1-1.584-1.583,15.016,15.016,0,0,1-.339-4.319v-.01c0-.216,0-.412,0-.582s0-.365,0-.58a15.18,15.18,0,0,1,.339-4.331,2.812,2.812,0,0,1,1.584-1.584,11.755,11.755,0,0,1,3.442-.345c.312,0,.612,0,.876.006.22,0,.42,0,.592,0s.364,0,.578,0c.26,0,.552-.005.858-.005a11.969,11.969,0,0,1,3.475.344,2.811,2.811,0,0,1,1.583,1.584,14.969,14.969,0,0,1,.339,4.315c0,.221,0,.422,0,.595s0,.374,0,.595a14.958,14.958,0,0,1-.339,4.316,2.812,2.812,0,0,1-1.583,1.583A11.7,11.7,0,0,1-597.811-14.161Zm-1.476-11.11A4.276,4.276,0,0,0-603.559-21a4.276,4.276,0,0,0,4.271,4.271A4.276,4.276,0,0,0-595.016-21,4.276,4.276,0,0,0-599.288-25.271Zm4.446-1.171a1,1,0,0,0-1,1,1,1,0,0,0,1,1,1,1,0,0,0,1-1A1,1,0,0,0-594.841-26.442Zm-4.446,8.219A2.78,2.78,0,0,1-602.065-21a2.781,2.781,0,0,1,2.777-2.777A2.78,2.78,0,0,1-596.511-21,2.78,2.78,0,0,1-599.288-18.223Z" transform="translate(3828 2399)" fill="#fff"/>
  </g>
</svg>
